<?xml version="1.0" encoding="UTF-8"?>
<svg id="Layer_1" xmlns="http://www.w3.org/2000/svg" version="1.1" viewBox="0 0 1024 1024">
  <!-- Generator: Adobe Illustrator 29.5.0, SVG Export Plug-In . SVG Version: 2.1.0 Build 137)  -->
  <defs>
    <style>
      .st0 {
        fill: #a48354;
      }

      .st1 {
        font-family: MonotypeCorsiva, 'Monotype Corsiva';
        font-size: 50px;
      }

      .st1, .st2 {
        fill: #64311e;
      }

      .st3 {
        fill: #656d31;
      }

      .st4 {
        fill: #f7cd66;
      }

      .st5 {
        fill: none;
        stroke: #64311e;
        stroke-miterlimit: 10;
        stroke-width: 6px;
      }

      .st6 {
        fill: #112e1c;
      }

      .st7 {
        fill: #c8b682;
      }
    </style>
  </defs>
  <g>
    <path class="st7" d="M488.37,212.36c8.63-6.22,20.14-7.42,30.32-4.99,7.63,1.86,15.46,6.12,19.06,13.39-9.34,8.61-18.75,17.15-28.14,25.72-10.47-6.8-20.55-14.18-30.64-21.52,2.33-4.71,4.99-9.52,9.4-12.6Z"/>
    <path class="st7" d="M552.11,270.26c9.71-9.49,19.54-18.88,29.02-28.61,8.56,3.23,16.42,8.05,23.78,13.43,6.17,4.76,12.21,10.16,15.72,17.25,2.07,4.05,2.27,8.86,1,13.19-2.33,8.11-6.33,15.58-9.89,23.2-4.06,8.63-8.11,17.27-12.47,25.75-.2-10.13,1.97-20.57-1.14-30.46-3.08-10.86-11.46-19.54-21.13-24.97-7.76-4.23-16.21-7.17-24.89-8.78Z"/>
    <path class="st7" d="M437.71,288.68c4.38-5.71,11.23-9.39,18.39-10.06,8.93-.81,17.95-1.29,26.91-.65,9.34.57,18.11,6.94,20.94,15.97,2.44,8.03,2.42,16.55,3.55,24.82-6.81.94-13.42,3.16-19.45,6.42-6.3,3.76-11.64,8.98-15.89,14.93-6.3,8.64-11.91,17.81-16.35,27.55-6.94-6.93-13.88-13.86-20.89-20.72-.99-1.13-2.45-2.2-2.31-3.88-.26-11.7-.36-23.41-.32-35.11-.09-6.74,1.39-13.75,5.42-19.27Z"/>
    <path class="st7" d="M372.23,315.21c3.47-2.09,6.63-5.37,10.69-6.04,7.27,6.61,13.69,14.12,20.97,20.74-3.41,7.68-8.5,14.71-15.45,19.55-9.68,7.44-21.82,10.07-32.96,14.5.08.48.24,1.44.33,1.92-7.33-17.99.38-40.11,16.42-50.67Z"/>
    <path class="st7" d="M486.16,337.06c13.37-11.92,34.3-13.54,49.84-4.99,8.26,4.37,13.78,12.19,20.35,18.59,4.78,5.45,10.28,10.31,14.56,16.16-11.9,11.81-24.07,23.36-36.15,35-6.6,6.52-13.06,13.2-20.12,19.23-7.06-7.5-14.42-14.72-21.31-22.38-4.58-4.76-8.89-9.96-14.68-13.3-5.78-3.78-12.33-6.25-19.14-7.38,7.3-14.54,14.41-29.79,26.65-40.93Z"/>
    <path class="st7" d="M316.03,409.96c3.26-14.69,14.39-26.1,26.72-33.95,17.37,17.11,34.59,34.38,51.52,51.93-.66,2.48-1.31,4.97-1.92,7.47-13.17,3.04-24.71,12.14-30.88,24.15-4.64,7.91-7.29,16.75-9.18,25.68-4.03-3.14-7.38-7.01-11.08-10.5-7-6.82-13.47-14.35-17.8-23.18-6.72-12.58-11.21-27.4-7.38-41.6Z"/>
    <path class="st7" d="M296.71,475.69c3.61-6.36,9.08-11.41,14.97-15.64,11.98,12.1,23.94,24.23,36.09,36.16,4.98,4.96,9.71,10.23,15.35,14.47-22.47-.29-44.95.03-67.42-.17-5.86-10.72-5.32-24.43,1.01-34.82Z"/>
    <path class="st4" d="M509.44,541.42c-.04-4.95,0-9.9.03-14.84,14.19.09,28.38.09,42.58.07,13.85.01,28.01,4.5,38.25,14.06,10.94,10.6,16.9,26.03,16.09,41.24-.3,13.84-6.36,27.46-16.55,36.85-6.58,5.96-14.8,9.92-23.43,11.87-10.55,2.71-21.51,1.69-32.27,1.9-.03-4.97,0-9.94.03-14.91,11.52-.28,23.61,1.46,34.56-3.07,9.34-3.84,16.85-11.94,19.74-21.63,2.65-9.04,2.62-18.94-.55-27.84-3.81-10.69-13.33-18.85-24.15-21.91-7.74-2.26-15.89-1.61-23.84-1.74-10.16-.14-20.33-.2-30.49-.05Z"/>
    <path class="st6" d="M675.59,595.4c-9.55.4-19.11.14-28.66.12.03,11.96.03,23.92.03,35.88-5.34.07-10.67.04-16,.04-.31-9.42.02-18.83-.19-28.23.39-25.78-.02-51.56.16-77.34,16.95-.1,33.91-.1,50.87,0,10.1.12,20.83,2.82,28.05,10.31,10.29,9.97,12.73,26.7,6.4,39.43-4.71,9-13.65,15.45-23.51,17.65M646.95,541.37c-.01,13.65,0,27.29.03,40.94,11.29.02,22.59.15,33.87-.21,6.77-.21,14.13-2.04,18.57-7.54,5.32-6.78,5.31-16.89,1-24.18-3.94-6.15-11.5-8.73-18.51-8.84-11.65-.24-23.31.04-34.96-.17Z"/>
    <path class="st4" d="M509.62,549.91c5.38.19,10.77.19,16.15.1-.07,27.44.07,54.89-.17,82.33-5.33-.11-10.66-.07-15.99-.03.02-27.47-.1-54.93.01-82.4Z"/>
    <path class="st4" d="M498.78,792.93c9.02-2.35,19.2-.9,26.76,4.72,10.69,7.87,15.79,22.69,11.71,35.4-3.53,10.47-12.64,19.2-23.64,21.24-6.27.69-12.93.79-18.78-1.94-8.88-3.99-15.95-12.23-18.01-21.81-.64-5-.68-10.12.11-15.1,2.87-10.5,11.16-19.72,21.85-22.51Z"/>
  </g>
  <g>
    <path class="st3" d="M516.9,253.34c7.99-6.99,15.49-14.54,23.67-21.31,1.42,6.29,2.21,12.72,2.11,19.18-.1,8.33.57,16.69-.1,25-9.58,10.11-19.59,19.89-29.52,29.7-.94-11.24-6.19-22.87-16.3-28.64-7.09-4.38-15.63-5.09-23.76-4.9.21-11.96-.5-24.1,2.27-35.84,11.06,8.05,22.19,16.01,33.57,23.58,3.19-1.3,5.35-4.6,8.06-6.77Z"/>
    <path class="st3" d="M399.13,273.73c10.17-11.72,22.79-21.31,36.76-28.04,8.74,8.88,17.55,17.71,26.14,26.74-9.1.51-18.56,2.43-25.91,8.15-8.38,6.93-13.22,17.83-13.13,28.67-.05,6.37.08,12.74-.14,19.12-7.24-10.31-13.68-21.17-20.18-31.96-2.77-5.1-6.28-10.17-6.79-16.12-.27-2.64,1.74-4.67,3.25-6.56Z"/>
    <path class="st3" d="M652.49,489.96c15.69-12.59,29.3-27.58,45.29-39.79,10.93,5.9,21.2,14.46,25.77,26.35,4.97,12.28,1.89,26.77-6.09,37.07-36.22.16-72.45.31-108.68.2,15.75-5.42,30.85-13.18,43.71-23.83Z"/>
    <path class="st3" d="M404.68,530.1c26.41.04,52.82-.01,79.23-.01-.04,4.8-.04,9.61-.01,14.42-26.43.07-52.86-.11-79.29-.12.09-4.76.08-9.53.07-14.29Z"/>
    <path class="st3" d="M404.64,553.19c5.23-.03,10.46.19,15.7-.01-.05,7.47-.06,14.93-.02,22.39,19.31.07,38.62.05,57.92.05-.03,4.74-.06,9.49.02,14.23-24.54.05-49.07.04-73.61.13.01-12.27-.01-24.53-.01-36.79Z"/>
    <path class="st3" d="M404.54,598.82c5.28.07,10.56.06,15.85.05-.06,7.4.04,14.81-.07,22.22,21.4,0,42.81.06,64.21.09-.01,4.79-.03,9.58.04,14.37-26.65.01-53.31,0-79.96-.03.03-12.23-.03-24.47-.07-36.7Z"/>
    <path class="st3" d="M283.97,689.29c43.48-2.9,88.06,1.01,129.03,16.61,34.36,13.28,65.34,34.68,90.99,61.03,4.93,5.08,9.45,10.54,14.25,15.74-12.05-5.11-26.48-3.95-37.53,3.07-14.56,8.52-22.16,26.74-19.13,43.16,2.11,11.75,9.53,22.32,19.81,28.38-16.55-2.2-33.21-4.04-49.37-8.35-35-8.46-67.89-26.08-93.77-51.2-29.57-28.62-50.13-67.26-54.28-108.44Z"/>
  </g>
  <g>
    <path class="st6" d="M550.27,278.77c12.57,2.3,25.47,7.12,34.1,16.94,5.41,6.39,7.84,15,7.04,23.3-.53,10.03-1.27,20.05-2.15,30.06-3.88,4.07-8.2,7.69-12.1,11.74-7.69-8.32-15.65-16.38-23.25-24.78-3.74-3.92-7.49-7.97-12.28-10.62-7.86-4.33-16.74-7.07-25.77-6.99-.07-1.89-.12-3.77-.17-5.65,11.62-11.24,23.33-22.39,34.58-34Z"/>
    <path class="st6" d="M568.85,380.16c23.09-21.8,45.82-43.97,68.73-65.94,11.22,8.01,22.09,17.72,27.24,30.85,5.4,12.81,3.67,27.33-.65,40.18-4.95,14.15-12.18,27.55-21.57,39.25-6.42-6.61-12.86-13.2-19.33-19.75-4.93-5.09-9.64-10.47-15.31-14.75-11.42-7.64-25.47-10.87-39.11-9.84Z"/>
    <path class="st6" d="M558.2,391.26c16.75-4.95,36.66-2.5,49.78,9.73,8.27,8.41,16.42,16.94,24.73,25.31,6.14,6.29,12.58,12.66,16.18,20.83,3.73,8.74,5.87,18.18,5.93,27.7-14.57,13.42-32.42,23.06-51.31,28.88-10.58,3.25-21.45,6.11-32.56,6.6-47.76.18-95.53-.03-143.3.35,15.88-7.39,27.48-20.88,40.06-32.59,27.56-26.92,55.7-53.22,83.25-80.13,2.45-2.18,4.59-4.74,7.24-6.68Z"/>
    <path class="st6" d="M647.93,430.23c12.59-11.89,25.09-23.88,37.7-35.75,6.22,4.49,11.42,10.63,13.98,17.94,3.27,8.8,2.73,18.7-.53,27.41-3.31.11-6.62.91-9.03,3.31-9.07,8.07-18.24,16.04-27.08,24.36-1.47-13.46-5.84-27.06-15.04-37.27Z"/>
    <path class="st6" d="M374.42,455.49c14.37-16.4,42.69-17.38,58.19-2.11,7.66,8.09,15.38,16.12,23.33,23.93-7.15,6.73-13.98,13.87-21.87,19.75-10.62,7.41-23.11,12.63-36.15,13.26-14.45.47-29.65-4.97-38.86-16.46,2.29-13.62,6.19-27.67,15.36-38.37Z"/>
    <path class="st2" d="M292.89,526.85c5.17.04,10.35.08,15.53.02-.11,19.44-.03,38.89.14,58.33,18.26-19.29,36.36-38.74,54.67-57.96,6.47-.86,13.24-.12,19.82-.44-14.35,15.11-28.97,29.96-43.21,45.18,16,20.07,31.75,40.33,47.93,60.26-6.56-.08-13.12-.05-19.67.01-12.93-16.61-26.04-33.08-39.19-49.52-6.78,7.26-13.63,14.45-20.6,21.53.11,9.29,0,18.58.1,27.87-5.17-.02-10.34-.02-15.5.04.04-35.11.06-70.21-.02-105.32Z"/>
  </g>
  <g>
    <path class="st0" d="M388.44,349.46c6.95-4.84,12.04-11.87,15.45-19.55,15.48,15.79,31.23,31.32,46.43,47.39-13.38.3-26.78,5.23-36.39,14.69-6.73,6.66-11.53,14.97-15.23,23.62-8.21-7.92-16.03-16.21-23.94-24.41-7.21-7.67-15.1-15.29-18.95-25.32-.09-.48-.25-1.44-.33-1.92,11.14-4.43,23.28-7.06,32.96-14.5Z"/>
    <path class="st0" d="M428.62,391.65c15.76-8.57,37.48-8.02,50.87,4.78,9.92,9.97,19.58,20.21,29.31,30.36-15.6,14.95-30.98,30.13-46.8,44.85-7.7-7.52-15.06-15.38-22.46-23.19-9.65-10.48-24.41-15.24-38.44-14.23,4.4-16.46,12.19-33.65,27.52-42.57Z"/>
  </g>
  <g>
    <path class="st2" d="M393.44,693.13c109.67-.05,219.34.03,329.01,0-3.18,26.15-12.04,51.65-26.06,73.97-25.89,1.95-52.36.07-77.63,7.1-26.33,6.78-49.46,23.31-66.25,44.48-7.51-17.38-18.8-32.88-31.19-47.09-11.44-12.62-23.93-24.32-37.64-34.45-26.64-20.62-57.4-36.18-90.24-44.01Z"/>
    <path class="st6" d="M657.95,773.97c11.87-.77,23.78-.71,35.66-1.44-26.29,37.06-66.37,63.32-110.02,75.18-17.21,5.03-35,7.48-52.72,9.91,13.11-8.38,20.88-22.32,30.16-34.35,10.77-14.18,24.08-26.77,40.03-34.9,17.42-9.41,37.25-13.44,56.89-14.4Z"/>
  </g>
  <text class="st1" transform="translate(382.52 677.45)"><tspan x="0" y="0">база отдыха</tspan></text>
  <line class="st5" x1="283.97" y1="663.44" x2="371.93" y2="662.49"/>
  <line class="st5" x1="634.13" y1="665.3" x2="722.45" y2="664.34"/>
</svg>